<svg width="10" height="11" viewBox="0 0 10 11" fill="none" xmlns="http://www.w3.org/2000/svg">
<path d="M2.875 1.25C2.875 1.04289 2.70711 0.875 2.5 0.875C2.29289 0.875 2.125 1.04289 2.125 1.25V2.03963C1.40533 2.09726 0.932886 2.23869 0.585786 2.58579C0.238687 2.93289 0.0972566 3.40533 0.0396286 4.125H9.96037C9.90274 3.40533 9.76131 2.93289 9.41421 2.58579C9.06711 2.23869 8.59466 2.09726 7.875 2.03963V1.25C7.875 1.04289 7.70711 0.875 7.5 0.875C7.29289 0.875 7.125 1.04289 7.125 1.25V2.00645C6.79237 2 6.41952 2 6 2H4C3.58048 2 3.20763 2 2.875 2.00645V1.25Z" fill="#128C7E"/>
<path fill-rule="evenodd" clip-rule="evenodd" d="M0 6C0 5.58048 0 5.20763 0.00645101 4.875H9.99355C10 5.20763 10 5.58048 10 6V7C10 8.88562 10 9.82843 9.41421 10.4142C8.82843 11 7.88562 11 6 11H4C2.11438 11 1.17157 11 0.585786 10.4142C0 9.82843 0 8.88562 0 7V6ZM7.5 7C7.77614 7 8 6.77614 8 6.5C8 6.22386 7.77614 6 7.5 6C7.22386 6 7 6.22386 7 6.5C7 6.77614 7.22386 7 7.5 7ZM7.5 9C7.77614 9 8 8.77614 8 8.5C8 8.22386 7.77614 8 7.5 8C7.22386 8 7 8.22386 7 8.5C7 8.77614 7.22386 9 7.5 9ZM5.5 6.5C5.5 6.77614 5.27614 7 5 7C4.72386 7 4.5 6.77614 4.5 6.5C4.5 6.22386 4.72386 6 5 6C5.27614 6 5.5 6.22386 5.5 6.5ZM5.5 8.5C5.5 8.77614 5.27614 9 5 9C4.72386 9 4.5 8.77614 4.5 8.5C4.5 8.22386 4.72386 8 5 8C5.27614 8 5.5 8.22386 5.5 8.5ZM2.5 7C2.77614 7 3 6.77614 3 6.5C3 6.22386 2.77614 6 2.5 6C2.22386 6 2 6.22386 2 6.5C2 6.77614 2.22386 7 2.5 7ZM2.5 9C2.77614 9 3 8.77614 3 8.5C3 8.22386 2.77614 8 2.5 8C2.22386 8 2 8.22386 2 8.5C2 8.77614 2.22386 9 2.5 9Z" fill="#128C7E"/>
</svg>
