<svg width="14" height="14" viewBox="0 0 14 14" fill="none" xmlns="http://www.w3.org/2000/svg">
<path d="M2.33301 12.8333H11.6663" stroke="#128C7E" stroke-linecap="round"/>
<path d="M8.10104 2.13679L8.53358 1.70424C9.25024 0.987583 10.4122 0.987583 11.1288 1.70424C11.8455 2.42091 11.8455 3.58285 11.1288 4.29951L10.6963 4.73205M8.10104 2.13679C8.10104 2.13679 8.15511 3.05594 8.96613 3.86696C9.77715 4.67798 10.6963 4.73205 10.6963 4.73205M8.10104 2.13679L4.12446 6.11337C3.85512 6.38271 3.72045 6.51738 3.60463 6.66587C3.468 6.84103 3.35087 7.03056 3.2553 7.23109C3.17428 7.40109 3.11406 7.58177 2.9936 7.94313L2.48319 9.47438M10.6963 4.73205L6.71972 8.70863C6.45038 8.97797 6.31571 9.11264 6.16722 9.22846C5.99206 9.36508 5.80253 9.48222 5.602 9.57779C5.432 9.6588 5.25132 9.71903 4.88996 9.83948L3.3587 10.3499M3.3587 10.3499L2.9844 10.4747C2.80657 10.5339 2.61051 10.4877 2.47797 10.3551C2.34542 10.2226 2.29914 10.0265 2.35842 9.84869L2.48319 9.47438M3.3587 10.3499L2.48319 9.47438" stroke="#128C7E"/>
</svg>
