<svg width="18" height="18" viewBox="0 0 18 18" fill="none" xmlns="http://www.w3.org/2000/svg">
<path d="M5.25 10.5C5.75 11.4643 7.2 12.75 9 12.75C10.8 12.75 12.25 11.4643 12.75 10.5M16.5 9C16.5 13.1421 13.1421 16.5 9 16.5C4.85786 16.5 1.5 13.1421 1.5 9C1.5 4.85786 4.85786 1.5 9 1.5C13.1421 1.5 16.5 4.85786 16.5 9Z" stroke="white" stroke-linecap="round"/>
<path d="M7.5 6C7.5 6.41421 7.16421 6.75 6.75 6.75C6.33579 6.75 6 6.41421 6 6C6 5.58579 6.33579 5.25 6.75 5.25C7.16421 5.25 7.5 5.58579 7.5 6Z" fill="white"/>
<path d="M12 6C12 6.41421 11.6642 6.75 11.25 6.75C10.8358 6.75 10.5 6.41421 10.5 6C10.5 5.58579 10.8358 5.25 11.25 5.25C11.6642 5.25 12 5.58579 12 6Z" fill="white"/>
</svg>
