<svg width="60" height="60" viewBox="0 0 60 60" fill="none" xmlns="http://www.w3.org/2000/svg">
<path d="M28 28.5H32M34.1804 32.5H25.8196C23.5109 32.5 21.6393 30.714 21.6393 28.5108V23.633C21.6393 22.9248 21.3445 22.2456 20.8197 21.7448C19.6038 20.5845 19.7619 18.662 21.1525 17.6969L27.5412 13.263C29.0071 12.2457 30.9929 12.2457 32.4588 13.263L38.8475 17.6969C40.2381 18.662 40.3962 20.5845 39.1803 21.7448C38.6555 22.2456 38.3607 22.9248 38.3607 23.633V28.5108C38.3607 30.714 36.4891 32.5 34.1804 32.5Z" stroke="#C2C2C2" stroke-width="1.5" stroke-linecap="round"/>
<path d="M22.0549 38.55V45.5H20.9149V42.46H17.6449V45.5H16.5049V38.55H17.6449V41.53H20.9149V38.55H22.0549ZM25.4457 45.59C24.9257 45.59 24.4557 45.4733 24.0357 45.24C23.6157 45 23.2857 44.6667 23.0457 44.24C22.8057 43.8067 22.6857 43.3067 22.6857 42.74C22.6857 42.18 22.809 41.6833 23.0557 41.25C23.3023 40.8167 23.639 40.4833 24.0657 40.25C24.4923 40.0167 24.969 39.9 25.4957 39.9C26.0223 39.9 26.499 40.0167 26.9257 40.25C27.3523 40.4833 27.689 40.8167 27.9357 41.25C28.1823 41.6833 28.3057 42.18 28.3057 42.74C28.3057 43.3 28.179 43.7967 27.9257 44.23C27.6723 44.6633 27.3257 45 26.8857 45.24C26.4523 45.4733 25.9723 45.59 25.4457 45.59ZM25.4457 44.6C25.739 44.6 26.0123 44.53 26.2657 44.39C26.5257 44.25 26.7357 44.04 26.8957 43.76C27.0557 43.48 27.1357 43.14 27.1357 42.74C27.1357 42.34 27.059 42.0033 26.9057 41.73C26.7523 41.45 26.549 41.24 26.2957 41.1C26.0423 40.96 25.769 40.89 25.4757 40.89C25.1823 40.89 24.909 40.96 24.6557 41.1C24.409 41.24 24.2123 41.45 24.0657 41.73C23.919 42.0033 23.8457 42.34 23.8457 42.74C23.8457 43.3333 23.9957 43.7933 24.2957 44.12C24.6023 44.44 24.9857 44.6 25.4457 44.6ZM35.6026 39.9C36.036 39.9 36.4226 39.99 36.7626 40.17C37.1093 40.35 37.3793 40.6167 37.5726 40.97C37.7726 41.3233 37.8726 41.75 37.8726 42.25V45.5H36.7426V42.42C36.7426 41.9267 36.6193 41.55 36.3726 41.29C36.126 41.0233 35.7893 40.89 35.3626 40.89C34.936 40.89 34.596 41.0233 34.3426 41.29C34.096 41.55 33.9726 41.9267 33.9726 42.42V45.5H32.8426V42.42C32.8426 41.9267 32.7193 41.55 32.4726 41.29C32.226 41.0233 31.8893 40.89 31.4626 40.89C31.036 40.89 30.696 41.0233 30.4426 41.29C30.196 41.55 30.0726 41.9267 30.0726 42.42V45.5H28.9326V39.99H30.0726V40.62C30.2593 40.3933 30.496 40.2167 30.7826 40.09C31.0693 39.9633 31.376 39.9 31.7026 39.9C32.1426 39.9 32.536 39.9933 32.8826 40.18C33.2293 40.3667 33.496 40.6367 33.6826 40.99C33.8493 40.6567 34.1093 40.3933 34.4626 40.2C34.816 40 35.196 39.9 35.6026 39.9ZM43.8732 42.61C43.8732 42.8167 43.8599 43.0033 43.8332 43.17H39.6232C39.6566 43.61 39.8199 43.9633 40.1132 44.23C40.4066 44.4967 40.7666 44.63 41.1932 44.63C41.8066 44.63 42.2399 44.3733 42.4932 43.86H43.7232C43.5566 44.3667 43.2532 44.7833 42.8132 45.11C42.3799 45.43 41.8399 45.59 41.1932 45.59C40.6666 45.59 40.1932 45.4733 39.7732 45.24C39.3599 45 39.0332 44.6667 38.7932 44.24C38.5599 43.8067 38.4432 43.3067 38.4432 42.74C38.4432 42.1733 38.5566 41.6767 38.7832 41.25C39.0166 40.8167 39.3399 40.4833 39.7532 40.25C40.1732 40.0167 40.6532 39.9 41.1932 39.9C41.7132 39.9 42.1766 40.0133 42.5832 40.24C42.9899 40.4667 43.3066 40.7867 43.5332 41.2C43.7599 41.6067 43.8732 42.0767 43.8732 42.61ZM42.6832 42.25C42.6766 41.83 42.5266 41.4933 42.2332 41.24C41.9399 40.9867 41.5766 40.86 41.1432 40.86C40.7499 40.86 40.4132 40.9867 40.1332 41.24C39.8532 41.4867 39.6866 41.8233 39.6332 42.25H42.6832Z" fill="#C2C2C2"/>
</svg>
