<svg width="18" height="19" viewBox="0 0 18 19" fill="none" xmlns="http://www.w3.org/2000/svg">
<path fill-rule="evenodd" clip-rule="evenodd" d="M11.0856 15.2754C12.8179 13.0663 15 9.85694 15 7.70652C15 4.14068 12.3137 1.25 9 1.25C5.68629 1.25 3 4.14068 3 7.70652C3 9.85694 5.18209 13.0663 6.91441 15.2754C7.81818 16.4279 8.27007 17.0041 9 17.0041C9.72993 17.0041 10.1818 16.4279 11.0856 15.2754ZM9 10.25C7.75736 10.25 6.75 9.24264 6.75 8C6.75 6.75736 7.75736 5.75 9 5.75C10.2426 5.75 11.25 6.75736 11.25 8C11.25 9.24264 10.2426 10.25 9 10.25Z" fill="#101010"/>
</svg>
