<svg width="8" height="11" viewBox="0 0 8 11" fill="none" xmlns="http://www.w3.org/2000/svg">
<path fill-rule="evenodd" clip-rule="evenodd" d="M5.3904 9.85024C6.54527 8.37755 8 6.23796 8 4.80435C8 2.42712 6.20914 0.5 4 0.5C1.79086 0.5 0 2.42712 0 4.80435C0 6.23796 1.45473 8.37755 2.6096 9.85024C3.21212 10.6186 3.51338 11.0027 4 11.0027C4.48662 11.0027 4.78788 10.6186 5.3904 9.85024ZM4 6.5C3.17157 6.5 2.5 5.82843 2.5 5C2.5 4.17157 3.17157 3.5 4 3.5C4.82843 3.5 5.5 4.17157 5.5 5C5.5 5.82843 4.82843 6.5 4 6.5Z" fill="#128C7E"/>
</svg>
