<svg width="16" height="18" viewBox="0 0 16 18" fill="none" xmlns="http://www.w3.org/2000/svg">
<path fill-rule="evenodd" clip-rule="evenodd" d="M7.9529 0.0416568H8.04693C9.5784 0.0416435 10.7914 0.041633 11.7408 0.169269C12.7178 0.300626 13.5086 0.57739 14.1322 1.20103C14.7559 1.82466 15.0326 2.61545 15.164 3.59247C15.2916 4.54182 15.2916 5.75485 15.2916 7.28631V10.7137C15.2916 12.2451 15.2916 13.4582 15.164 14.4075C15.0326 15.3845 14.7559 16.1753 14.1322 16.799C13.5086 17.4226 12.7178 17.6994 11.7408 17.8307C10.7914 17.9583 9.5784 17.9583 8.04693 17.9583H7.95291C6.42144 17.9583 5.20841 17.9583 4.25907 17.8307C3.28205 17.6994 2.49126 17.4226 1.86762 16.799C1.24399 16.1753 0.967221 15.3845 0.835865 14.4075C0.708228 13.4582 0.708239 12.2451 0.708252 10.7137V7.28631C0.708239 5.75484 0.708228 4.54182 0.835865 3.59247C0.967221 2.61545 1.24399 1.82466 1.86762 1.20103C2.49126 0.57739 3.28205 0.300626 4.25907 0.169269C5.20841 0.041633 6.42144 0.0416435 7.9529 0.0416568ZM4.42563 1.40812C3.58722 1.52084 3.10418 1.73223 2.7515 2.08491C2.39883 2.43758 2.18744 2.92062 2.07472 3.75903C1.95958 4.61542 1.95825 5.74431 1.95825 7.33332V10.6667C1.95825 12.2557 1.95958 13.3846 2.07472 14.2409C2.18744 15.0794 2.39883 15.5624 2.7515 15.9151C3.10418 16.2677 3.58722 16.4791 4.42563 16.5919C5.28201 16.707 6.4109 16.7083 7.99992 16.7083C9.58894 16.7083 10.7178 16.707 11.5742 16.5919C12.4126 16.4791 12.8957 16.2677 13.2483 15.9151C13.601 15.5624 13.8124 15.0794 13.9251 14.2409C14.0403 13.3846 14.0416 12.2557 14.0416 10.6667V7.33332C14.0416 5.74431 14.0403 4.61542 13.9251 3.75903C13.8124 2.92062 13.601 2.43758 13.2483 2.08491C12.8957 1.73223 12.4126 1.52084 11.5742 1.40812C10.7178 1.29298 9.58894 1.29166 7.99992 1.29166C6.4109 1.29166 5.28201 1.29298 4.42563 1.40812ZM4.87492 14.8333C4.87492 14.4881 5.15474 14.2083 5.49992 14.2083H10.4999C10.8451 14.2083 11.1249 14.4881 11.1249 14.8333C11.1249 15.1785 10.8451 15.4583 10.4999 15.4583H5.49992C5.15474 15.4583 4.87492 15.1785 4.87492 14.8333Z" fill="#878787"/>
</svg>
