<svg width="28" height="28" viewBox="0 0 28 28" fill="none" xmlns="http://www.w3.org/2000/svg">
<rect width="28" height="28" rx="14" fill="#E7F4F2"/>
<path d="M16.4171 16.1796L16.0755 16.5193C16.0755 16.5193 15.2636 17.3266 13.0473 15.1229C10.8311 12.9193 11.643 12.1119 11.643 12.1119L11.8581 11.898C12.3881 11.3711 12.438 10.5252 11.9757 9.90761L11.0299 8.64431C10.4577 7.87994 9.35197 7.77896 8.69609 8.43112L7.51889 9.60164C7.19367 9.92501 6.97574 10.3442 7.00217 10.8092C7.06978 11.9989 7.60804 14.5585 10.6115 17.5449C13.7966 20.7119 16.7851 20.8378 18.0072 20.7239C18.3938 20.6878 18.7299 20.4909 19.0008 20.2216L20.0663 19.1622C20.7854 18.4471 20.5827 17.2212 19.6625 16.721L18.2296 15.9421C17.6254 15.6136 16.8893 15.7101 16.4171 16.1796Z" fill="#128C7E"/>
</svg>
