<svg width="60" height="60" viewBox="0 0 60 60" fill="none" xmlns="http://www.w3.org/2000/svg">
<path d="M34 16.5H33.25C33.25 18.2949 31.7949 19.75 30 19.75V20.5V21.25C32.6234 21.25 34.75 19.1234 34.75 16.5H34ZM30 20.5V19.75C28.2051 19.75 26.75 18.2949 26.75 16.5H26H25.25C25.25 19.1234 27.3766 21.25 30 21.25V20.5ZM26 16.5H26.75C26.75 14.7051 28.2051 13.25 30 13.25V12.5V11.75C27.3766 11.75 25.25 13.8766 25.25 16.5H26ZM30 12.5V13.25C31.7949 13.25 33.25 14.7051 33.25 16.5H34H34.75C34.75 13.8766 32.6234 11.75 30 11.75V12.5ZM27 23.5V24.25H33V23.5V22.75H27V23.5ZM33 31.5V30.75H27V31.5V32.25H33V31.5ZM27 31.5V30.75C25.2051 30.75 23.75 29.2949 23.75 27.5H23H22.25C22.25 30.1234 24.3766 32.25 27 32.25V31.5ZM37 27.5H36.25C36.25 29.2949 34.7949 30.75 33 30.75V31.5V32.25C35.6234 32.25 37.75 30.1234 37.75 27.5H37ZM33 23.5V24.25C34.7949 24.25 36.25 25.7051 36.25 27.5H37H37.75C37.75 24.8766 35.6234 22.75 33 22.75V23.5ZM27 23.5V22.75C24.3766 22.75 22.25 24.8766 22.25 27.5H23H23.75C23.75 25.7051 25.2051 24.25 27 24.25V23.5Z" fill="#C2C2C2"/>
<path d="M21.6461 40.62C21.6461 40.9733 21.5628 41.3067 21.3961 41.62C21.2295 41.9333 20.9628 42.19 20.5961 42.39C20.2295 42.5833 19.7595 42.68 19.1861 42.68H17.9261V45.5H16.7861V38.55H19.1861C19.7195 38.55 20.1695 38.6433 20.5361 38.83C20.9095 39.01 21.1861 39.2567 21.3661 39.57C21.5528 39.8833 21.6461 40.2333 21.6461 40.62ZM19.1861 41.75C19.6195 41.75 19.9428 41.6533 20.1561 41.46C20.3695 41.26 20.4761 40.98 20.4761 40.62C20.4761 39.86 20.0461 39.48 19.1861 39.48H17.9261V41.75H19.1861ZM23.3734 40.79C23.5401 40.51 23.7601 40.2933 24.0334 40.14C24.3134 39.98 24.6434 39.9 25.0234 39.9V41.08H24.7334C24.2867 41.08 23.9467 41.1933 23.7134 41.42C23.4867 41.6467 23.3734 42.04 23.3734 42.6V45.5H22.2334V39.99H23.3734V40.79ZM27.9613 45.59C27.4413 45.59 26.9713 45.4733 26.5513 45.24C26.1313 45 25.8013 44.6667 25.5613 44.24C25.3213 43.8067 25.2013 43.3067 25.2013 42.74C25.2013 42.18 25.3246 41.6833 25.5713 41.25C25.818 40.8167 26.1546 40.4833 26.5813 40.25C27.008 40.0167 27.4846 39.9 28.0113 39.9C28.538 39.9 29.0146 40.0167 29.4413 40.25C29.868 40.4833 30.2046 40.8167 30.4513 41.25C30.698 41.6833 30.8213 42.18 30.8213 42.74C30.8213 43.3 30.6946 43.7967 30.4413 44.23C30.188 44.6633 29.8413 45 29.4013 45.24C28.968 45.4733 28.488 45.59 27.9613 45.59ZM27.9613 44.6C28.2546 44.6 28.528 44.53 28.7813 44.39C29.0413 44.25 29.2513 44.04 29.4113 43.76C29.5713 43.48 29.6513 43.14 29.6513 42.74C29.6513 42.34 29.5746 42.0033 29.4213 41.73C29.268 41.45 29.0646 41.24 28.8113 41.1C28.558 40.96 28.2846 40.89 27.9913 40.89C27.698 40.89 27.4246 40.96 27.1713 41.1C26.9246 41.24 26.728 41.45 26.5813 41.73C26.4346 42.0033 26.3613 42.34 26.3613 42.74C26.3613 43.3333 26.5113 43.7933 26.8113 44.12C27.118 44.44 27.5013 44.6 27.9613 44.6ZM33.7582 40.92H32.7382V45.5H31.5882V40.92H30.9382V39.99H31.5882V39.6C31.5882 38.9667 31.7549 38.5067 32.0882 38.22C32.4282 37.9267 32.9582 37.78 33.6782 37.78V38.73C33.3316 38.73 33.0882 38.7967 32.9482 38.93C32.8082 39.0567 32.7382 39.28 32.7382 39.6V39.99H33.7582V40.92ZM34.8486 39.26C34.6419 39.26 34.4686 39.19 34.3286 39.05C34.1886 38.91 34.1186 38.7367 34.1186 38.53C34.1186 38.3233 34.1886 38.15 34.3286 38.01C34.4686 37.87 34.6419 37.8 34.8486 37.8C35.0486 37.8 35.2186 37.87 35.3586 38.01C35.4986 38.15 35.5686 38.3233 35.5686 38.53C35.5686 38.7367 35.4986 38.91 35.3586 39.05C35.2186 39.19 35.0486 39.26 34.8486 39.26ZM35.4086 39.99V45.5H34.2686V39.99H35.4086ZM37.5453 38.1V45.5H36.4053V38.1H37.5453ZM43.592 42.61C43.592 42.8167 43.5787 43.0033 43.552 43.17H39.342C39.3753 43.61 39.5387 43.9633 39.832 44.23C40.1253 44.4967 40.4853 44.63 40.912 44.63C41.5253 44.63 41.9587 44.3733 42.212 43.86H43.442C43.2753 44.3667 42.972 44.7833 42.532 45.11C42.0987 45.43 41.5587 45.59 40.912 45.59C40.3853 45.59 39.912 45.4733 39.492 45.24C39.0787 45 38.752 44.6667 38.512 44.24C38.2787 43.8067 38.162 43.3067 38.162 42.74C38.162 42.1733 38.2753 41.6767 38.502 41.25C38.7353 40.8167 39.0587 40.4833 39.472 40.25C39.892 40.0167 40.372 39.9 40.912 39.9C41.432 39.9 41.8953 40.0133 42.302 40.24C42.7087 40.4667 43.0253 40.7867 43.252 41.2C43.4787 41.6067 43.592 42.0767 43.592 42.61ZM42.402 42.25C42.3953 41.83 42.2453 41.4933 41.952 41.24C41.6587 40.9867 41.2953 40.86 40.862 40.86C40.4687 40.86 40.132 40.9867 39.852 41.24C39.572 41.4867 39.4053 41.8233 39.352 42.25H42.402Z" fill="#C2C2C2"/>
</svg>
