<svg width="60" height="60" viewBox="0 0 60 60" fill="none" xmlns="http://www.w3.org/2000/svg">
<path d="M22.3875 31.7632L22.7794 31.1237L22.3875 31.7632ZM20.7368 30.1125L21.3763 29.7206H21.3763L20.7368 30.1125ZM39.2632 30.1125L38.6237 29.7206L39.2632 30.1125ZM37.6125 31.7632L37.2206 31.1237L37.6125 31.7632ZM37.6125 16.2368L37.2206 16.8763L37.6125 16.2368ZM39.2632 17.8875L38.6237 18.2794L39.2632 17.8875ZM22.3875 16.2368L22.7794 16.8763H22.7794L22.3875 16.2368ZM20.7368 17.8875L21.3763 18.2794H21.3763L20.7368 17.8875ZM36.4768 13.0464L37.0181 12.5273V12.5273L36.4768 13.0464ZM21.8442 13.3908L22.2971 13.9886V13.9886L21.8442 13.3908ZM20.8545 14.4227L21.4698 14.8515L20.8545 14.4227ZM37 15.6303H37.75L37.75 15.6266L37 15.6303ZM36.3637 24.1137C36.7779 24.1137 37.1137 23.7779 37.1137 23.3637C37.1137 22.9494 36.7779 22.6137 36.3637 22.6137V24.1137ZM33.6364 22.6137C33.2222 22.6137 32.8864 22.9494 32.8864 23.3637C32.8864 23.7779 33.2222 24.1137 33.6364 24.1137V22.6137ZM28.5 15.5V16.25H31.5V15.5V14.75H28.5V15.5ZM31.5 32.5V31.75H28.5V32.5V33.25H31.5V32.5ZM28.5 32.5V31.75C26.8488 31.75 25.663 31.7492 24.7381 31.6613C23.8244 31.5744 23.2429 31.4078 22.7794 31.1237L22.3875 31.7632L21.9957 32.4027C22.7345 32.8554 23.5726 33.0572 24.5961 33.1545C25.6085 33.2508 26.8778 33.25 28.5 33.25V32.5ZM20 24H19.25C19.25 25.6222 19.2492 26.8915 19.3455 27.9039C19.4428 28.9274 19.6446 29.7655 20.0973 30.5044L20.7368 30.1125L21.3763 29.7206C21.0923 29.2571 20.9256 28.6757 20.8388 27.7619C20.7508 26.837 20.75 25.6512 20.75 24H20ZM22.3875 31.7632L22.7794 31.1237C22.2075 30.7733 21.7267 30.2925 21.3763 29.7206L20.7368 30.1125L20.0973 30.5044C20.5715 31.2781 21.222 31.9286 21.9957 32.4027L22.3875 31.7632ZM31.5 32.5V33.25C33.1222 33.25 34.3915 33.2508 35.4039 33.1545C36.4275 33.0572 37.2656 32.8554 38.0044 32.4027L37.6125 31.7632L37.2206 31.1237C36.7571 31.4078 36.1757 31.5744 35.2619 31.6613C34.337 31.7492 33.1513 31.75 31.5 31.75V32.5ZM39.2632 30.1125L38.6237 29.7206C38.2733 30.2925 37.7925 30.7733 37.2206 31.1237L37.6125 31.7632L38.0044 32.4027C38.7781 31.9286 39.4286 31.2781 39.9027 30.5044L39.2632 30.1125ZM37.6125 16.2368L37.2206 16.8763C37.7925 17.2267 38.2733 17.7075 38.6237 18.2794L39.2632 17.8875L39.9027 17.4956C39.4286 16.7219 38.7781 16.0714 38.0044 15.5973L37.6125 16.2368ZM28.5 15.5V14.75C26.8778 14.75 25.6085 14.7492 24.5961 14.8455C23.5726 14.9428 22.7345 15.1446 21.9957 15.5973L22.3875 16.2368L22.7794 16.8763C23.2429 16.5922 23.8244 16.4256 24.7381 16.3387C25.663 16.2508 26.8488 16.25 28.5 16.25V15.5ZM20 24H20.75C20.75 22.3488 20.7508 21.163 20.8388 20.2381C20.9256 19.3243 21.0923 18.7429 21.3763 18.2794L20.7368 17.8875L20.0973 17.4956C19.6446 18.2345 19.4428 19.0726 19.3455 20.0961C19.2492 21.1085 19.25 22.3778 19.25 24H20ZM22.3875 16.2368L21.9957 15.5973C21.222 16.0714 20.5715 16.7219 20.0973 17.4956L20.7368 17.8875L21.3763 18.2794C21.7267 17.7075 22.2075 17.2267 22.7794 16.8763L22.3875 16.2368ZM28.0531 12.5V13.25H33.4218V12.5V11.75H28.0531V12.5ZM33.4218 12.5V13.25C34.2875 13.25 34.8582 13.2517 35.2814 13.311C35.6797 13.3669 35.8346 13.4604 35.9355 13.5656L36.4768 13.0464L37.0181 12.5273C36.5949 12.0861 36.0659 11.9064 35.4896 11.8256C34.9381 11.7483 34.2434 11.75 33.4218 11.75V12.5ZM28.0531 12.5V11.75C26.3929 11.75 25.085 11.7489 24.0473 11.8661C22.9937 11.9851 22.1297 12.2337 21.3914 12.7929L21.8442 13.3908L22.2971 13.9886C22.7348 13.6571 23.2977 13.4603 24.2157 13.3566C25.1496 13.2511 26.3581 13.25 28.0531 13.25V12.5ZM20 20.8956H20.75C20.75 19.1306 20.751 17.8647 20.8528 16.8847C20.9534 15.917 21.1455 15.3168 21.4698 14.8515L20.8545 14.4227L20.2392 13.9939C19.709 14.7546 19.4739 15.6419 19.3609 16.7297C19.2491 17.8052 19.25 19.1627 19.25 20.8956H20ZM21.8442 13.3908L21.3914 12.7929C20.9481 13.1287 20.5595 13.5342 20.2392 13.9939L20.8545 14.4227L21.4698 14.8515C21.7014 14.5192 21.9808 14.2282 22.2971 13.9886L21.8442 13.3908ZM37 15.6303L37.75 15.6266C37.7467 14.95 37.7322 14.3636 37.6475 13.8775C37.5594 13.3723 37.3854 12.9103 37.0181 12.5273L36.4768 13.0464L35.9355 13.5656C36.0289 13.6629 36.1131 13.8099 36.1698 14.1351C36.2298 14.4793 36.2466 14.9447 36.25 15.634L37 15.6303ZM20 20.8956H19.25C19.25 21.8713 19.2299 22.7642 19.2503 23.5202L20 23.5L20.7497 23.4798C20.73 22.7482 20.75 21.924 20.75 20.8956H20ZM39.5 26.0909V25.3409H33.6364V26.0909V26.8409H39.5V26.0909ZM30.9091 23.3637H30.1591C30.1591 25.2841 31.7159 26.8409 33.6364 26.8409V26.0909V25.3409C32.5444 25.3409 31.6591 24.4557 31.6591 23.3637H30.9091ZM30.9091 23.3637H31.6591C31.6591 22.2716 32.5444 21.3864 33.6364 21.3864V20.6364V19.8864C31.7159 19.8864 30.1591 21.4432 30.1591 23.3637H30.9091ZM36.3637 23.3637V22.6137H33.6364V23.3637V24.1137H36.3637V23.3637ZM31.5 15.5V16.25C32.8847 16.25 33.9449 16.2503 34.8035 16.3033C35.6613 16.3562 36.261 16.4594 36.7338 16.639L37 15.9378L37.2663 15.2367C36.5862 14.9784 35.8119 14.8627 34.8959 14.8061C33.9807 14.7497 32.8674 14.75 31.5 14.75V15.5ZM37 15.9378L36.7338 16.639C36.9108 16.7062 37.071 16.7846 37.2206 16.8763L37.6125 16.2368L38.0044 15.5973C37.771 15.4543 37.5261 15.3353 37.2663 15.2367L37 15.9378ZM37 15.6303H36.25V15.9378H37H37.75V15.6303H37ZM33.6364 20.6364V21.3864H39.9444V20.6364V19.8864H33.6364V20.6364ZM40 24H40.75C40.75 22.6255 40.7504 21.5077 40.693 20.5896L39.9444 20.6364L39.1959 20.6832C39.2497 21.5439 39.25 22.608 39.25 24H40ZM39.9444 20.6364L40.693 20.5896C40.6145 19.3348 40.4247 18.3475 39.9027 17.4956L39.2632 17.8875L38.6237 18.2794C38.9527 18.8161 39.1224 19.5071 39.1959 20.6832L39.9444 20.6364ZM40 24H39.25C39.25 24.7875 39.25 25.4722 39.2399 26.0785L39.9898 26.0909L40.7397 26.1034C40.75 25.4821 40.75 24.7839 40.75 24H40ZM39.9898 26.0909L39.2399 26.0785C39.2074 28.037 39.0635 29.0031 38.6237 29.7206L39.2632 30.1125L39.9027 30.5044C40.5829 29.3944 40.7077 28.0313 40.7397 26.1034L39.9898 26.0909ZM39.5 26.0909V26.8409H39.9898V26.0909V25.3409H39.5V26.0909Z" fill="#C2C2C2"/>
<path d="M25.0832 38.55L23.0232 45.5H21.7332L20.2732 40.24L18.7232 45.5L17.4432 45.51L15.4732 38.55H16.6832L18.1232 44.21L19.6832 38.55H20.9632L22.4132 44.18L23.8632 38.55H25.0832ZM25.1434 42.72C25.1434 42.1667 25.2568 41.6767 25.4834 41.25C25.7168 40.8233 26.0301 40.4933 26.4234 40.26C26.8234 40.02 27.2634 39.9 27.7434 39.9C28.1768 39.9 28.5534 39.9867 28.8734 40.16C29.2001 40.3267 29.4601 40.5367 29.6534 40.79V39.99H30.8034V45.5H29.6534V44.68C29.4601 44.94 29.1968 45.1567 28.8634 45.33C28.5301 45.5033 28.1501 45.59 27.7234 45.59C27.2501 45.59 26.8168 45.47 26.4234 45.23C26.0301 44.9833 25.7168 44.6433 25.4834 44.21C25.2568 43.77 25.1434 43.2733 25.1434 42.72ZM29.6534 42.74C29.6534 42.36 29.5734 42.03 29.4134 41.75C29.2601 41.47 29.0568 41.2567 28.8034 41.11C28.5501 40.9633 28.2768 40.89 27.9834 40.89C27.6901 40.89 27.4168 40.9633 27.1634 41.11C26.9101 41.25 26.7034 41.46 26.5434 41.74C26.3901 42.0133 26.3134 42.34 26.3134 42.72C26.3134 43.1 26.3901 43.4333 26.5434 43.72C26.7034 44.0067 26.9101 44.2267 27.1634 44.38C27.4234 44.5267 27.6968 44.6 27.9834 44.6C28.2768 44.6 28.5501 44.5267 28.8034 44.38C29.0568 44.2333 29.2601 44.02 29.4134 43.74C29.5734 43.4533 29.6534 43.12 29.6534 42.74ZM32.9408 38.1V45.5H31.8008V38.1H32.9408ZM35.0775 38.1V45.5H33.9375V38.1H35.0775ZM41.1242 42.61C41.1242 42.8167 41.1109 43.0033 41.0842 43.17H36.8742C36.9076 43.61 37.0709 43.9633 37.3642 44.23C37.6576 44.4967 38.0176 44.63 38.4442 44.63C39.0576 44.63 39.4909 44.3733 39.7442 43.86H40.9742C40.8076 44.3667 40.5042 44.7833 40.0642 45.11C39.6309 45.43 39.0909 45.59 38.4442 45.59C37.9176 45.59 37.4442 45.4733 37.0242 45.24C36.6109 45 36.2842 44.6667 36.0442 44.24C35.8109 43.8067 35.6942 43.3067 35.6942 42.74C35.6942 42.1733 35.8076 41.6767 36.0342 41.25C36.2676 40.8167 36.5909 40.4833 37.0042 40.25C37.4242 40.0167 37.9042 39.9 38.4442 39.9C38.9642 39.9 39.4276 40.0133 39.8342 40.24C40.2409 40.4667 40.5576 40.7867 40.7842 41.2C41.0109 41.6067 41.1242 42.0767 41.1242 42.61ZM39.9342 42.25C39.9276 41.83 39.7776 41.4933 39.4842 41.24C39.1909 40.9867 38.8276 40.86 38.3942 40.86C38.0009 40.86 37.6642 40.9867 37.3842 41.24C37.1042 41.4867 36.9376 41.8233 36.8842 42.25H39.9342ZM43.0761 40.92V43.97C43.0761 44.1767 43.1228 44.3267 43.2161 44.42C43.3161 44.5067 43.4828 44.55 43.7161 44.55H44.4161V45.5H43.5161C43.0028 45.5 42.6094 45.38 42.3361 45.14C42.0628 44.9 41.9261 44.51 41.9261 43.97V40.92H41.2761V39.99H41.9261V38.62H43.0761V39.99H44.4161V40.92H43.0761Z" fill="#C2C2C2"/>
</svg>
