<svg width="20" height="21" viewBox="0 0 20 21" fill="none" xmlns="http://www.w3.org/2000/svg">
<path fill-rule="evenodd" clip-rule="evenodd" d="M10 20.5C15.5228 20.5 20 16.0228 20 10.5C20 4.97715 15.5228 0.5 10 0.5C4.47715 0.5 0 4.97715 0 10.5C0 16.0228 4.47715 20.5 10 20.5ZM15.9536 11.2499H12.9055C12.7675 11.7861 12.485 12.2644 12.1019 12.6406L13.6262 15.2807C14.8809 14.3275 15.7489 12.8917 15.9536 11.2499ZM12.3277 16.0318L10.8032 13.3913C10.5476 13.4621 10.2782 13.5 10 13.5C9.72176 13.5 9.45236 13.4621 9.19669 13.3912L7.6722 16.0317C8.38798 16.3333 9.17452 16.5 10 16.5C10.8255 16.5 11.612 16.3333 12.3277 16.0318ZM6.37379 15.2806L7.89806 12.6405C7.515 12.2643 7.23247 11.7861 7.09448 11.2499H4.0464C4.2511 12.8917 5.11911 14.3275 6.37379 15.2806ZM15.9536 9.74987H12.9055C12.7674 9.21369 12.4849 8.73553 12.1018 8.35938L13.6261 5.71928C14.8808 6.6724 15.7488 8.10814 15.9536 9.74987ZM12.3277 4.96822C11.6119 4.66668 10.8254 4.5 10 4.5C9.17455 4.5 8.38803 4.66669 7.67227 4.96824L9.19676 7.60874C9.45241 7.53787 9.72178 7.5 10 7.5C10.2782 7.5 10.5475 7.53787 10.8032 7.60873L12.3277 4.96822ZM7.89812 8.35942L6.37385 5.71931C5.1192 6.67244 4.25119 8.10816 4.04644 9.74987H7.09455C7.23257 9.21371 7.51509 8.73556 7.89812 8.35942Z" fill="#101010"/>
</svg>
