<svg width="60" height="60" viewBox="0 0 60 60" fill="none" xmlns="http://www.w3.org/2000/svg">
<circle cx="30" cy="22.5" r="10" stroke="#C2C2C2" stroke-width="1.5"/>
<circle cx="30" cy="22.5" r="6" stroke="#C2C2C2" stroke-width="1.5"/>
<circle cx="30" cy="22.5" r="2" stroke="#C2C2C2" stroke-width="1.5"/>
<path d="M24 22.5L28 22.5" stroke="#C2C2C2" stroke-width="1.5" stroke-linecap="round"/>
<path d="M32 22.5L36 22.5" stroke="#C2C2C2" stroke-width="1.5" stroke-linecap="round"/>
<path d="M27 27.6962L29 24.2321" stroke="#C2C2C2" stroke-width="1.5" stroke-linecap="round"/>
<path d="M30.9999 20.7681L32.9999 17.304" stroke="#C2C2C2" stroke-width="1.5" stroke-linecap="round"/>
<path d="M33 27.6963L31 24.2322" stroke="#C2C2C2" stroke-width="1.5" stroke-linecap="round"/>
<path d="M29 20.7681L27 17.304" stroke="#C2C2C2" stroke-width="1.5" stroke-linecap="round"/>
<path d="M19.7146 38.55L17.1046 45.5H15.7846L13.1646 38.55H14.3846L16.4446 44.33L18.5146 38.55H19.7146ZM25.218 42.61C25.218 42.8167 25.2046 43.0033 25.178 43.17H20.968C21.0013 43.61 21.1646 43.9633 21.458 44.23C21.7513 44.4967 22.1113 44.63 22.538 44.63C23.1513 44.63 23.5846 44.3733 23.838 43.86H25.068C24.9013 44.3667 24.598 44.7833 24.158 45.11C23.7246 45.43 23.1846 45.59 22.538 45.59C22.0113 45.59 21.538 45.4733 21.118 45.24C20.7046 45 20.378 44.6667 20.138 44.24C19.9046 43.8067 19.788 43.3067 19.788 42.74C19.788 42.1733 19.9013 41.6767 20.128 41.25C20.3613 40.8167 20.6846 40.4833 21.098 40.25C21.518 40.0167 21.998 39.9 22.538 39.9C23.058 39.9 23.5213 40.0133 23.928 40.24C24.3346 40.4667 24.6513 40.7867 24.878 41.2C25.1046 41.6067 25.218 42.0767 25.218 42.61ZM24.028 42.25C24.0213 41.83 23.8713 41.4933 23.578 41.24C23.2846 40.9867 22.9213 40.86 22.488 40.86C22.0946 40.86 21.758 40.9867 21.478 41.24C21.198 41.4867 21.0313 41.8233 20.978 42.25H24.028ZM28.6898 39.9C29.1098 39.9 29.4832 39.99 29.8098 40.17C30.1432 40.35 30.4032 40.6167 30.5898 40.97C30.7832 41.3233 30.8798 41.75 30.8798 42.25V45.5H29.7498V42.42C29.7498 41.9267 29.6265 41.55 29.3798 41.29C29.1332 41.0233 28.7965 40.89 28.3698 40.89C27.9432 40.89 27.6032 41.0233 27.3498 41.29C27.1032 41.55 26.9798 41.9267 26.9798 42.42V45.5H25.8398V38.1H26.9798V40.63C27.1732 40.3967 27.4165 40.2167 27.7098 40.09C28.0098 39.9633 28.3365 39.9 28.6898 39.9ZM32.414 39.26C32.2073 39.26 32.034 39.19 31.894 39.05C31.754 38.91 31.684 38.7367 31.684 38.53C31.684 38.3233 31.754 38.15 31.894 38.01C32.034 37.87 32.2073 37.8 32.414 37.8C32.614 37.8 32.784 37.87 32.924 38.01C33.064 38.15 33.134 38.3233 33.134 38.53C33.134 38.7367 33.064 38.91 32.924 39.05C32.784 39.19 32.614 39.26 32.414 39.26ZM32.974 39.99V45.5H31.834V39.99H32.974ZM33.5907 42.74C33.5907 42.1733 33.704 41.6767 33.9307 41.25C34.164 40.8167 34.484 40.4833 34.8907 40.25C35.2974 40.0167 35.764 39.9 36.2907 39.9C36.9574 39.9 37.5074 40.06 37.9407 40.38C38.3807 40.6933 38.6774 41.1433 38.8307 41.73H37.6007C37.5007 41.4567 37.3407 41.2433 37.1207 41.09C36.9007 40.9367 36.624 40.86 36.2907 40.86C35.824 40.86 35.4507 41.0267 35.1707 41.36C34.8974 41.6867 34.7607 42.1467 34.7607 42.74C34.7607 43.3333 34.8974 43.7967 35.1707 44.13C35.4507 44.4633 35.824 44.63 36.2907 44.63C36.9507 44.63 37.3874 44.34 37.6007 43.76H38.8307C38.6707 44.32 38.3707 44.7667 37.9307 45.1C37.4907 45.4267 36.944 45.59 36.2907 45.59C35.764 45.59 35.2974 45.4733 34.8907 45.24C34.484 45 34.164 44.6667 33.9307 44.24C33.704 43.8067 33.5907 43.3067 33.5907 42.74ZM40.6068 38.1V45.5H39.4668V38.1H40.6068ZM46.6535 42.61C46.6535 42.8167 46.6402 43.0033 46.6135 43.17H42.4035C42.4368 43.61 42.6002 43.9633 42.8935 44.23C43.1868 44.4967 43.5468 44.63 43.9735 44.63C44.5868 44.63 45.0202 44.3733 45.2735 43.86H46.5035C46.3368 44.3667 46.0335 44.7833 45.5935 45.11C45.1602 45.43 44.6202 45.59 43.9735 45.59C43.4468 45.59 42.9735 45.4733 42.5535 45.24C42.1402 45 41.8135 44.6667 41.5735 44.24C41.3402 43.8067 41.2235 43.3067 41.2235 42.74C41.2235 42.1733 41.3368 41.6767 41.5635 41.25C41.7968 40.8167 42.1202 40.4833 42.5335 40.25C42.9535 40.0167 43.4335 39.9 43.9735 39.9C44.4935 39.9 44.9568 40.0133 45.3635 40.24C45.7702 40.4667 46.0868 40.7867 46.3135 41.2C46.5402 41.6067 46.6535 42.0767 46.6535 42.61ZM45.4635 42.25C45.4568 41.83 45.3068 41.4933 45.0135 41.24C44.7202 40.9867 44.3568 40.86 43.9235 40.86C43.5302 40.86 43.1935 40.9867 42.9135 41.24C42.6335 41.4867 42.4668 41.8233 42.4135 42.25H45.4635Z" fill="#C2C2C2"/>
</svg>
